<svg width="458" height="594" viewBox="0 0 458 594" fill="none" xmlns="http://www.w3.org/2000/svg">
<mask id="path-1-outside-1_21918_1667" maskUnits="userSpaceOnUse" x="39.4098" y="0" width="384" height="460" fill="black">
<rect fill="white" x="39.4098" width="384" height="460"/>
<path d="M285.581 37.0874C286.874 37.5283 288.187 37.8905 289.5 38.2643C304.151 42.7963 318.408 50.6514 330.567 59.9321C330.979 60.2452 330.979 60.2452 331.4 60.5647C334.649 63.0437 337.786 65.6036 340.793 68.3749C341.709 69.2152 342.643 70.0218 343.591 70.8247C347.862 74.562 351.866 78.6376 355.379 83.0953C356.443 84.4382 357.553 85.7316 358.669 87.0314C361.213 90.081 363.436 93.32 365.64 96.6218C366.187 97.4395 366.741 98.2524 367.298 99.0635C380.182 118.002 387.922 141.224 391.111 163.749C391.217 164.445 391.217 164.445 391.324 165.155C392.592 173.841 392.667 182.527 392.695 191.289C392.699 191.849 392.703 192.41 392.707 192.987C392.762 203.902 391.768 214.644 389.967 225.405C389.867 226.016 389.767 226.627 389.663 227.256C388.943 231.529 388.041 235.676 386.887 239.851C386.602 241.034 386.319 242.219 386.037 243.403C383.952 251.826 381.177 259.981 377.97 268.036C377.794 268.479 377.619 268.922 377.438 269.378C376.372 272.066 375.297 274.75 374.215 277.432C373.906 277.432 373.596 277.432 373.277 277.432C373.218 276.964 373.159 276.497 373.098 276.015C371.535 263.666 369.863 251.659 365.646 239.887C365.197 238.628 364.776 237.362 364.359 236.093C364.049 236.093 363.74 236.093 363.421 236.093C363.395 236.353 363.369 236.614 363.342 236.882C363.223 238.067 363.102 239.253 362.981 240.438C362.94 240.848 362.899 241.258 362.857 241.68C362.796 242.275 362.796 242.275 362.733 242.882C362.696 243.246 362.659 243.61 362.621 243.985C362.482 245.018 362.482 245.018 362.243 245.937C360.489 253.246 361.534 261.811 362.352 269.197C362.462 270.2 362.553 271.204 362.64 272.209C364.271 288.144 371.016 306.254 380.217 319.344C381.282 320.931 381.894 322.019 381.701 323.962C379.376 335.368 370.772 346.077 361.472 352.709C354.035 357.482 346.649 359.991 337.794 358.396C332.718 356.859 327.778 352.885 324.935 348.365C324.935 348.055 324.935 347.745 324.935 347.426C317.581 350.346 317.581 350.346 310.855 354.472C310.463 354.756 310.071 355.039 309.667 355.331C302.671 360.647 297.871 367.659 295.367 376.081C295.233 376.521 295.099 376.961 294.961 377.414C293.858 381.234 293.413 384.89 293.46 388.851C293.463 389.373 293.463 389.373 293.465 389.906C293.471 391.003 293.48 392.101 293.489 393.198C293.502 394.656 293.511 396.114 293.519 397.571C293.524 398.074 293.524 398.074 293.53 398.587C293.534 399.384 293.514 400.182 293.489 400.979C292.768 401.7 292.026 401.52 291.025 401.566C289.491 401.738 288.864 401.871 287.564 402.77C284.959 406.269 282.926 410.095 281.286 414.132C279.878 413.662 279.878 413.662 279.174 412.356C278.931 411.777 278.697 411.194 278.47 410.609C278.347 410.292 278.224 409.975 278.097 409.649C276.764 406.049 276.155 402.423 275.654 398.63C275.593 398.175 275.532 397.72 275.469 397.251C274.685 391.302 274.036 385.367 273.777 379.37C270.398 380.736 268.202 382.045 266.737 385.477C264.716 392.567 266.759 400.958 267.916 408.026C269.692 418.959 269.692 418.959 268.614 422.059C266.878 423.905 264.942 424.37 262.506 424.601C259.834 424.677 258.166 424.649 255.942 423.058C252.752 418.274 253.917 411.099 254.036 405.676C254.068 404.097 254.097 402.518 254.117 400.938C254.129 399.961 254.149 398.984 254.176 398.008C254.236 393.599 253.7 388.948 250.78 385.477C249.47 384.421 249.47 384.421 248.052 384.508C245.927 385.217 244.939 386.442 243.739 388.295C241.647 393.151 242.947 398.64 244.15 403.562C247.812 418.977 247.812 418.977 244.795 424.584C243.214 426.518 241.508 427.762 239.046 428.225C235.418 428.518 232.192 428.607 229.19 426.346C226.414 423.718 225.527 419.458 225.391 415.745C225.372 414.307 225.371 412.869 225.377 411.431C225.375 410.945 225.373 410.46 225.371 409.959C225.372 409.238 225.372 409.238 225.373 408.502C225.374 408.072 225.374 407.643 225.375 407.2C225.425 405.928 225.533 404.694 225.671 403.43C225.913 401.116 225.965 398.837 225.95 396.512C225.95 396.112 225.949 395.712 225.948 395.3C225.946 394.042 225.94 392.783 225.934 391.525C225.932 390.664 225.929 389.802 225.928 388.941C225.922 386.847 225.914 384.752 225.905 382.658C225.469 382.881 225.033 383.104 224.585 383.333C223.089 384.067 223.089 384.067 221.681 384.537C220.732 386.03 220.289 387.729 219.774 389.411C219.614 389.928 219.453 390.445 219.288 390.978C218.459 394.002 218.321 396.862 218.296 399.977C218.283 400.897 218.27 401.817 218.256 402.737C218.237 404.17 218.219 405.604 218.207 407.037C218.049 423.694 218.049 423.694 213.995 428.524C211.626 430.513 207.416 429.762 204.537 429.544C202.066 429.263 202.066 429.263 201.499 428.695C201.452 427.771 201.438 426.845 201.437 425.92C201.436 425.347 201.436 424.774 201.435 424.184C201.437 423.58 201.439 422.976 201.44 422.353C201.439 421.763 201.437 421.173 201.435 420.566C201.44 415.684 201.44 415.684 201.73 413.527C202.136 410.389 202.073 407.212 202.081 404.053C202.086 402.922 202.1 401.792 202.115 400.661C202.151 395.588 202.055 390.766 198.83 386.563C198.391 385.979 198.391 385.979 197.944 385.383C197.613 384.964 197.613 384.964 197.275 384.537C194.705 384.867 193.517 385.521 191.643 387.356C188.633 391.511 189.426 397.532 190.152 402.355C190.547 404.771 190.975 407.181 191.414 409.59C193.316 420.019 193.316 420.019 192.112 423.527C189.698 424.736 186.241 424.189 183.723 423.469C181.286 422.544 180.124 421.087 178.925 418.776C176.484 410.959 179.364 401.414 181.006 393.643C181.466 391.296 181.85 388.99 181.833 386.594C181.831 386.223 181.83 385.852 181.828 385.47C181.824 385.094 181.82 384.719 181.816 384.332C181.813 383.749 181.813 383.749 181.81 383.154C181.804 382.206 181.796 381.258 181.787 380.309C180.74 380.35 179.694 380.401 178.648 380.456C178.066 380.483 177.483 380.511 176.883 380.539C175.174 380.785 174.282 381.238 172.87 382.188C172.56 382.188 172.25 382.188 171.931 382.188C170.182 386.438 169.493 389.865 169.496 394.431C169.496 395.185 169.496 395.185 169.495 395.954C169.518 399.467 169.76 402.899 170.187 406.384C170.557 409.452 170.623 412.449 170.523 415.541C167.69 414.671 165.706 413.591 164.121 410.988C163.398 409.229 163.214 407.703 163.222 405.827C163.224 405.481 163.225 405.136 163.226 404.779C163.365 400.444 164.811 396.518 166.24 392.464C166.765 390.949 167.283 389.431 167.791 387.91C167.913 387.546 168.035 387.183 168.16 386.808C169.25 383.426 169.754 380.088 170.053 376.551C165.47 375.54 165.47 375.54 161.165 376.7C157.703 380.572 157.344 385.169 157.117 390.116C157.087 390.735 157.087 390.735 157.056 391.367C157.007 392.379 156.959 393.39 156.912 394.402C156.602 394.247 156.293 394.092 155.973 393.932C155.528 392.564 155.148 391.226 154.804 389.831C154.7 389.411 154.596 388.99 154.488 388.557C153.399 383.918 152.989 379.267 152.629 374.525C152.02 361.02 152.02 361.02 146.022 349.403C144.458 348.35 142.718 348.964 140.955 349.305C139.579 349.638 138.231 350.038 136.877 350.45C125.42 353.735 112.469 354.125 101.53 348.835C99.8794 347.837 98.3449 346.748 96.8368 345.547C96.3716 345.184 95.9063 344.821 95.427 344.448C87.533 337.804 84.4111 325.719 83.5194 315.893C82.1719 298.184 84.9303 280.651 89.1221 263.485C89.2512 262.956 89.2512 262.956 89.383 262.417C90.3974 258.295 91.5068 254.209 92.7353 250.146C93.4132 247.895 94 245.63 94.5488 243.344C95.0154 241.401 95.5059 239.507 96.2502 237.649C96.7951 236.203 96.9794 235.266 96.8368 233.744C95.5742 233.218 95.5742 233.218 94.0208 233.274C91.5534 235.243 90.3776 238.09 89.2981 240.966C89.1395 241.378 88.9808 241.79 88.8174 242.214C86.3669 248.689 84.7835 255.102 83.6954 261.929C83.5126 262.958 83.3272 263.985 83.138 265.012C83.0264 265.624 83.0264 265.624 82.9125 266.247C82.8611 266.528 82.8097 266.808 82.7567 267.097C81.4446 265.783 81.0567 264.209 80.4687 262.487C80.3543 262.162 80.24 261.836 80.1222 261.501C65.8853 220.487 66.609 173.875 86.9019 113.66C91.1988 104.92 96.093 96.8002 102 89.0573C102.218 88.77 102.437 88.4827 102.662 88.1868C105.131 84.9565 107.669 81.83 110.422 78.8345C111.33 77.8439 112.211 76.8351 113.088 75.8159C115.413 73.1518 117.907 70.7187 120.588 68.4153C121.436 67.6851 122.277 66.9458 123.114 66.2023C129.657 60.4261 136.756 55.4793 144.24 51.0066C144.515 50.8403 144.791 50.674 145.075 50.5027C181.631 28.5327 229.861 24.483 285.581 37.0874Z"/>
</mask>
<path d="M285.581 37.0874C286.874 37.5283 288.187 37.8905 289.5 38.2643C304.151 42.7963 318.408 50.6514 330.567 59.9321C330.979 60.2452 330.979 60.2452 331.4 60.5647C334.649 63.0437 337.786 65.6036 340.793 68.3749C341.709 69.2152 342.643 70.0218 343.591 70.8247C347.862 74.562 351.866 78.6376 355.379 83.0953C356.443 84.4382 357.553 85.7316 358.669 87.0314C361.213 90.081 363.436 93.32 365.64 96.6218C366.187 97.4395 366.741 98.2524 367.298 99.0635C380.182 118.002 387.922 141.224 391.111 163.749C391.217 164.445 391.217 164.445 391.324 165.155C392.592 173.841 392.667 182.527 392.695 191.289C392.699 191.849 392.703 192.41 392.707 192.987C392.762 203.902 391.768 214.644 389.967 225.405C389.867 226.016 389.767 226.627 389.663 227.256C388.943 231.529 388.041 235.676 386.887 239.851C386.602 241.034 386.319 242.219 386.037 243.403C383.952 251.826 381.177 259.981 377.97 268.036C377.794 268.479 377.619 268.922 377.438 269.378C376.372 272.066 375.297 274.75 374.215 277.432C373.906 277.432 373.596 277.432 373.277 277.432C373.218 276.964 373.159 276.497 373.098 276.015C371.535 263.666 369.863 251.659 365.646 239.887C365.197 238.628 364.776 237.362 364.359 236.093C364.049 236.093 363.74 236.093 363.421 236.093C363.395 236.353 363.369 236.614 363.342 236.882C363.223 238.067 363.102 239.253 362.981 240.438C362.94 240.848 362.899 241.258 362.857 241.68C362.796 242.275 362.796 242.275 362.733 242.882C362.696 243.246 362.659 243.61 362.621 243.985C362.482 245.018 362.482 245.018 362.243 245.937C360.489 253.246 361.534 261.811 362.352 269.197C362.462 270.2 362.553 271.204 362.64 272.209C364.271 288.144 371.016 306.254 380.217 319.344C381.282 320.931 381.894 322.019 381.701 323.962C379.376 335.368 370.772 346.077 361.472 352.709C354.035 357.482 346.649 359.991 337.794 358.396C332.718 356.859 327.778 352.885 324.935 348.365C324.935 348.055 324.935 347.745 324.935 347.426C317.581 350.346 317.581 350.346 310.855 354.472C310.463 354.756 310.071 355.039 309.667 355.331C302.671 360.647 297.871 367.659 295.367 376.081C295.233 376.521 295.099 376.961 294.961 377.414C293.858 381.234 293.413 384.89 293.46 388.851C293.463 389.373 293.463 389.373 293.465 389.906C293.471 391.003 293.48 392.101 293.489 393.198C293.502 394.656 293.511 396.114 293.519 397.571C293.524 398.074 293.524 398.074 293.53 398.587C293.534 399.384 293.514 400.182 293.489 400.979C292.768 401.7 292.026 401.52 291.025 401.566C289.491 401.738 288.864 401.871 287.564 402.77C284.959 406.269 282.926 410.095 281.286 414.132C279.878 413.662 279.878 413.662 279.174 412.356C278.931 411.777 278.697 411.194 278.47 410.609C278.347 410.292 278.224 409.975 278.097 409.649C276.764 406.049 276.155 402.423 275.654 398.63C275.593 398.175 275.532 397.72 275.469 397.251C274.685 391.302 274.036 385.367 273.777 379.37C270.398 380.736 268.202 382.045 266.737 385.477C264.716 392.567 266.759 400.958 267.916 408.026C269.692 418.959 269.692 418.959 268.614 422.059C266.878 423.905 264.942 424.37 262.506 424.601C259.834 424.677 258.166 424.649 255.942 423.058C252.752 418.274 253.917 411.099 254.036 405.676C254.068 404.097 254.097 402.518 254.117 400.938C254.129 399.961 254.149 398.984 254.176 398.008C254.236 393.599 253.7 388.948 250.78 385.477C249.47 384.421 249.47 384.421 248.052 384.508C245.927 385.217 244.939 386.442 243.739 388.295C241.647 393.151 242.947 398.64 244.15 403.562C247.812 418.977 247.812 418.977 244.795 424.584C243.214 426.518 241.508 427.762 239.046 428.225C235.418 428.518 232.192 428.607 229.19 426.346C226.414 423.718 225.527 419.458 225.391 415.745C225.372 414.307 225.371 412.869 225.377 411.431C225.375 410.945 225.373 410.46 225.371 409.959C225.372 409.238 225.372 409.238 225.373 408.502C225.374 408.072 225.374 407.643 225.375 407.2C225.425 405.928 225.533 404.694 225.671 403.43C225.913 401.116 225.965 398.837 225.95 396.512C225.95 396.112 225.949 395.712 225.948 395.3C225.946 394.042 225.94 392.783 225.934 391.525C225.932 390.664 225.929 389.802 225.928 388.941C225.922 386.847 225.914 384.752 225.905 382.658C225.469 382.881 225.033 383.104 224.585 383.333C223.089 384.067 223.089 384.067 221.681 384.537C220.732 386.03 220.289 387.729 219.774 389.411C219.614 389.928 219.453 390.445 219.288 390.978C218.459 394.002 218.321 396.862 218.296 399.977C218.283 400.897 218.27 401.817 218.256 402.737C218.237 404.17 218.219 405.604 218.207 407.037C218.049 423.694 218.049 423.694 213.995 428.524C211.626 430.513 207.416 429.762 204.537 429.544C202.066 429.263 202.066 429.263 201.499 428.695C201.452 427.771 201.438 426.845 201.437 425.92C201.436 425.347 201.436 424.774 201.435 424.184C201.437 423.58 201.439 422.976 201.44 422.353C201.439 421.763 201.437 421.173 201.435 420.566C201.44 415.684 201.44 415.684 201.73 413.527C202.136 410.389 202.073 407.212 202.081 404.053C202.086 402.922 202.1 401.792 202.115 400.661C202.151 395.588 202.055 390.766 198.83 386.563C198.391 385.979 198.391 385.979 197.944 385.383C197.613 384.964 197.613 384.964 197.275 384.537C194.705 384.867 193.517 385.521 191.643 387.356C188.633 391.511 189.426 397.532 190.152 402.355C190.547 404.771 190.975 407.181 191.414 409.59C193.316 420.019 193.316 420.019 192.112 423.527C189.698 424.736 186.241 424.189 183.723 423.469C181.286 422.544 180.124 421.087 178.925 418.776C176.484 410.959 179.364 401.414 181.006 393.643C181.466 391.296 181.85 388.99 181.833 386.594C181.831 386.223 181.83 385.852 181.828 385.47C181.824 385.094 181.82 384.719 181.816 384.332C181.813 383.749 181.813 383.749 181.81 383.154C181.804 382.206 181.796 381.258 181.787 380.309C180.74 380.35 179.694 380.401 178.648 380.456C178.066 380.483 177.483 380.511 176.883 380.539C175.174 380.785 174.282 381.238 172.87 382.188C172.56 382.188 172.25 382.188 171.931 382.188C170.182 386.438 169.493 389.865 169.496 394.431C169.496 395.185 169.496 395.185 169.495 395.954C169.518 399.467 169.76 402.899 170.187 406.384C170.557 409.452 170.623 412.449 170.523 415.541C167.69 414.671 165.706 413.591 164.121 410.988C163.398 409.229 163.214 407.703 163.222 405.827C163.224 405.481 163.225 405.136 163.226 404.779C163.365 400.444 164.811 396.518 166.24 392.464C166.765 390.949 167.283 389.431 167.791 387.91C167.913 387.546 168.035 387.183 168.16 386.808C169.25 383.426 169.754 380.088 170.053 376.551C165.47 375.54 165.47 375.54 161.165 376.7C157.703 380.572 157.344 385.169 157.117 390.116C157.087 390.735 157.087 390.735 157.056 391.367C157.007 392.379 156.959 393.39 156.912 394.402C156.602 394.247 156.293 394.092 155.973 393.932C155.528 392.564 155.148 391.226 154.804 389.831C154.7 389.411 154.596 388.99 154.488 388.557C153.399 383.918 152.989 379.267 152.629 374.525C152.02 361.02 152.02 361.02 146.022 349.403C144.458 348.35 142.718 348.964 140.955 349.305C139.579 349.638 138.231 350.038 136.877 350.45C125.42 353.735 112.469 354.125 101.53 348.835C99.8794 347.837 98.3449 346.748 96.8368 345.547C96.3716 345.184 95.9063 344.821 95.427 344.448C87.533 337.804 84.4111 325.719 83.5194 315.893C82.1719 298.184 84.9303 280.651 89.1221 263.485C89.2512 262.956 89.2512 262.956 89.383 262.417C90.3974 258.295 91.5068 254.209 92.7353 250.146C93.4132 247.895 94 245.63 94.5488 243.344C95.0154 241.401 95.5059 239.507 96.2502 237.649C96.7951 236.203 96.9794 235.266 96.8368 233.744C95.5742 233.218 95.5742 233.218 94.0208 233.274C91.5534 235.243 90.3776 238.09 89.2981 240.966C89.1395 241.378 88.9808 241.79 88.8174 242.214C86.3669 248.689 84.7835 255.102 83.6954 261.929C83.5126 262.958 83.3272 263.985 83.138 265.012C83.0264 265.624 83.0264 265.624 82.9125 266.247C82.8611 266.528 82.8097 266.808 82.7567 267.097C81.4446 265.783 81.0567 264.209 80.4687 262.487C80.3543 262.162 80.24 261.836 80.1222 261.501C65.8853 220.487 66.609 173.875 86.9019 113.66C91.1988 104.92 96.093 96.8002 102 89.0573C102.218 88.77 102.437 88.4827 102.662 88.1868C105.131 84.9565 107.669 81.83 110.422 78.8345C111.33 77.8439 112.211 76.8351 113.088 75.8159C115.413 73.1518 117.907 70.7187 120.588 68.4153C121.436 67.6851 122.277 66.9458 123.114 66.2023C129.657 60.4261 136.756 55.4793 144.24 51.0066C144.515 50.8403 144.791 50.674 145.075 50.5027C181.631 28.5327 229.861 24.483 285.581 37.0874Z" fill="#FEFEFE"/>
<path d="M285.581 37.0874C286.874 37.5283 288.187 37.8905 289.5 38.2643C304.151 42.7963 318.408 50.6514 330.567 59.9321C330.979 60.2452 330.979 60.2452 331.4 60.5647C334.649 63.0437 337.786 65.6036 340.793 68.3749C341.709 69.2152 342.643 70.0218 343.591 70.8247C347.862 74.562 351.866 78.6376 355.379 83.0953C356.443 84.4382 357.553 85.7316 358.669 87.0314C361.213 90.081 363.436 93.32 365.64 96.6218C366.187 97.4395 366.741 98.2524 367.298 99.0635C380.182 118.002 387.922 141.224 391.111 163.749C391.217 164.445 391.217 164.445 391.324 165.155C392.592 173.841 392.667 182.527 392.695 191.289C392.699 191.849 392.703 192.41 392.707 192.987C392.762 203.902 391.768 214.644 389.967 225.405C389.867 226.016 389.767 226.627 389.663 227.256C388.943 231.529 388.041 235.676 386.887 239.851C386.602 241.034 386.319 242.219 386.037 243.403C383.952 251.826 381.177 259.981 377.97 268.036C377.794 268.479 377.619 268.922 377.438 269.378C376.372 272.066 375.297 274.75 374.215 277.432C373.906 277.432 373.596 277.432 373.277 277.432C373.218 276.964 373.159 276.497 373.098 276.015C371.535 263.666 369.863 251.659 365.646 239.887C365.197 238.628 364.776 237.362 364.359 236.093C364.049 236.093 363.74 236.093 363.421 236.093C363.395 236.353 363.369 236.614 363.342 236.882C363.223 238.067 363.102 239.253 362.981 240.438C362.94 240.848 362.899 241.258 362.857 241.68C362.796 242.275 362.796 242.275 362.733 242.882C362.696 243.246 362.659 243.61 362.621 243.985C362.482 245.018 362.482 245.018 362.243 245.937C360.489 253.246 361.534 261.811 362.352 269.197C362.462 270.2 362.553 271.204 362.64 272.209C364.271 288.144 371.016 306.254 380.217 319.344C381.282 320.931 381.894 322.019 381.701 323.962C379.376 335.368 370.772 346.077 361.472 352.709C354.035 357.482 346.649 359.991 337.794 358.396C332.718 356.859 327.778 352.885 324.935 348.365C324.935 348.055 324.935 347.745 324.935 347.426C317.581 350.346 317.581 350.346 310.855 354.472C310.463 354.756 310.071 355.039 309.667 355.331C302.671 360.647 297.871 367.659 295.367 376.081C295.233 376.521 295.099 376.961 294.961 377.414C293.858 381.234 293.413 384.89 293.46 388.851C293.463 389.373 293.463 389.373 293.465 389.906C293.471 391.003 293.48 392.101 293.489 393.198C293.502 394.656 293.511 396.114 293.519 397.571C293.524 398.074 293.524 398.074 293.53 398.587C293.534 399.384 293.514 400.182 293.489 400.979C292.768 401.7 292.026 401.52 291.025 401.566C289.491 401.738 288.864 401.871 287.564 402.77C284.959 406.269 282.926 410.095 281.286 414.132C279.878 413.662 279.878 413.662 279.174 412.356C278.931 411.777 278.697 411.194 278.47 410.609C278.347 410.292 278.224 409.975 278.097 409.649C276.764 406.049 276.155 402.423 275.654 398.63C275.593 398.175 275.532 397.72 275.469 397.251C274.685 391.302 274.036 385.367 273.777 379.37C270.398 380.736 268.202 382.045 266.737 385.477C264.716 392.567 266.759 400.958 267.916 408.026C269.692 418.959 269.692 418.959 268.614 422.059C266.878 423.905 264.942 424.37 262.506 424.601C259.834 424.677 258.166 424.649 255.942 423.058C252.752 418.274 253.917 411.099 254.036 405.676C254.068 404.097 254.097 402.518 254.117 400.938C254.129 399.961 254.149 398.984 254.176 398.008C254.236 393.599 253.7 388.948 250.78 385.477C249.47 384.421 249.47 384.421 248.052 384.508C245.927 385.217 244.939 386.442 243.739 388.295C241.647 393.151 242.947 398.64 244.15 403.562C247.812 418.977 247.812 418.977 244.795 424.584C243.214 426.518 241.508 427.762 239.046 428.225C235.418 428.518 232.192 428.607 229.19 426.346C226.414 423.718 225.527 419.458 225.391 415.745C225.372 414.307 225.371 412.869 225.377 411.431C225.375 410.945 225.373 410.46 225.371 409.959C225.372 409.238 225.372 409.238 225.373 408.502C225.374 408.072 225.374 407.643 225.375 407.2C225.425 405.928 225.533 404.694 225.671 403.43C225.913 401.116 225.965 398.837 225.95 396.512C225.95 396.112 225.949 395.712 225.948 395.3C225.946 394.042 225.94 392.783 225.934 391.525C225.932 390.664 225.929 389.802 225.928 388.941C225.922 386.847 225.914 384.752 225.905 382.658C225.469 382.881 225.033 383.104 224.585 383.333C223.089 384.067 223.089 384.067 221.681 384.537C220.732 386.03 220.289 387.729 219.774 389.411C219.614 389.928 219.453 390.445 219.288 390.978C218.459 394.002 218.321 396.862 218.296 399.977C218.283 400.897 218.27 401.817 218.256 402.737C218.237 404.17 218.219 405.604 218.207 407.037C218.049 423.694 218.049 423.694 213.995 428.524C211.626 430.513 207.416 429.762 204.537 429.544C202.066 429.263 202.066 429.263 201.499 428.695C201.452 427.771 201.438 426.845 201.437 425.92C201.436 425.347 201.436 424.774 201.435 424.184C201.437 423.58 201.439 422.976 201.44 422.353C201.439 421.763 201.437 421.173 201.435 420.566C201.44 415.684 201.44 415.684 201.73 413.527C202.136 410.389 202.073 407.212 202.081 404.053C202.086 402.922 202.1 401.792 202.115 400.661C202.151 395.588 202.055 390.766 198.83 386.563C198.391 385.979 198.391 385.979 197.944 385.383C197.613 384.964 197.613 384.964 197.275 384.537C194.705 384.867 193.517 385.521 191.643 387.356C188.633 391.511 189.426 397.532 190.152 402.355C190.547 404.771 190.975 407.181 191.414 409.59C193.316 420.019 193.316 420.019 192.112 423.527C189.698 424.736 186.241 424.189 183.723 423.469C181.286 422.544 180.124 421.087 178.925 418.776C176.484 410.959 179.364 401.414 181.006 393.643C181.466 391.296 181.85 388.99 181.833 386.594C181.831 386.223 181.83 385.852 181.828 385.47C181.824 385.094 181.82 384.719 181.816 384.332C181.813 383.749 181.813 383.749 181.81 383.154C181.804 382.206 181.796 381.258 181.787 380.309C180.74 380.35 179.694 380.401 178.648 380.456C178.066 380.483 177.483 380.511 176.883 380.539C175.174 380.785 174.282 381.238 172.87 382.188C172.56 382.188 172.25 382.188 171.931 382.188C170.182 386.438 169.493 389.865 169.496 394.431C169.496 395.185 169.496 395.185 169.495 395.954C169.518 399.467 169.76 402.899 170.187 406.384C170.557 409.452 170.623 412.449 170.523 415.541C167.69 414.671 165.706 413.591 164.121 410.988C163.398 409.229 163.214 407.703 163.222 405.827C163.224 405.481 163.225 405.136 163.226 404.779C163.365 400.444 164.811 396.518 166.24 392.464C166.765 390.949 167.283 389.431 167.791 387.91C167.913 387.546 168.035 387.183 168.16 386.808C169.25 383.426 169.754 380.088 170.053 376.551C165.47 375.54 165.47 375.54 161.165 376.7C157.703 380.572 157.344 385.169 157.117 390.116C157.087 390.735 157.087 390.735 157.056 391.367C157.007 392.379 156.959 393.39 156.912 394.402C156.602 394.247 156.293 394.092 155.973 393.932C155.528 392.564 155.148 391.226 154.804 389.831C154.7 389.411 154.596 388.99 154.488 388.557C153.399 383.918 152.989 379.267 152.629 374.525C152.02 361.02 152.02 361.02 146.022 349.403C144.458 348.35 142.718 348.964 140.955 349.305C139.579 349.638 138.231 350.038 136.877 350.45C125.42 353.735 112.469 354.125 101.53 348.835C99.8794 347.837 98.3449 346.748 96.8368 345.547C96.3716 345.184 95.9063 344.821 95.427 344.448C87.533 337.804 84.4111 325.719 83.5194 315.893C82.1719 298.184 84.9303 280.651 89.1221 263.485C89.2512 262.956 89.2512 262.956 89.383 262.417C90.3974 258.295 91.5068 254.209 92.7353 250.146C93.4132 247.895 94 245.63 94.5488 243.344C95.0154 241.401 95.5059 239.507 96.2502 237.649C96.7951 236.203 96.9794 235.266 96.8368 233.744C95.5742 233.218 95.5742 233.218 94.0208 233.274C91.5534 235.243 90.3776 238.09 89.2981 240.966C89.1395 241.378 88.9808 241.79 88.8174 242.214C86.3669 248.689 84.7835 255.102 83.6954 261.929C83.5126 262.958 83.3272 263.985 83.138 265.012C83.0264 265.624 83.0264 265.624 82.9125 266.247C82.8611 266.528 82.8097 266.808 82.7567 267.097C81.4446 265.783 81.0567 264.209 80.4687 262.487C80.3543 262.162 80.24 261.836 80.1222 261.501C65.8853 220.487 66.609 173.875 86.9019 113.66C91.1988 104.92 96.093 96.8002 102 89.0573C102.218 88.77 102.437 88.4827 102.662 88.1868C105.131 84.9565 107.669 81.83 110.422 78.8345C111.33 77.8439 112.211 76.8351 113.088 75.8159C115.413 73.1518 117.907 70.7187 120.588 68.4153C121.436 67.6851 122.277 66.9458 123.114 66.2023C129.657 60.4261 136.756 55.4793 144.24 51.0066C144.515 50.8403 144.791 50.674 145.075 50.5027C181.631 28.5327 229.861 24.483 285.581 37.0874Z" stroke="black" stroke-width="60" mask="url(#path-1-outside-1_21918_1667)"/>
<mask id="path-2-outside-2_21918_1667" maskUnits="userSpaceOnUse" x="-1" y="312.186" width="459" height="282" fill="black">
<rect fill="white" x="-1" y="312.186" width="459" height="282"/>
<path d="M57.9991 344.96C66.5744 350.816 72.522 359.811 77.5981 368.691C78.0352 369.455 78.4799 370.215 78.925 370.974C81.0703 374.667 83.0861 378.425 85.1034 382.188C90.5016 392.655 90.5016 392.655 97.3062 402.212C98.2448 403.327 98.2448 403.327 98.2448 404.267C98.6242 404.312 99.0035 404.357 99.3943 404.403C101.447 404.814 103.265 405.529 105.197 406.322C105.606 406.489 106.015 406.655 106.436 406.827C107.776 407.377 109.112 407.934 110.448 408.495C110.89 408.68 111.333 408.866 111.789 409.057C123.802 414.128 135.438 420 146.713 426.547C148.029 427.305 149.351 428.049 150.677 428.79C157.074 432.366 163.35 436.115 169.584 439.969C169.997 440.223 170.409 440.477 170.834 440.739C174.598 443.06 178.354 445.392 182.099 447.744C192.585 454.329 203.143 460.784 213.873 466.966C215.049 467.649 216.215 468.346 217.38 469.048C218.051 469.445 218.722 469.842 219.393 470.239C219.684 470.419 219.976 470.6 220.276 470.786C222.234 471.927 223.266 471.961 225.435 471.443C226.748 470.907 226.748 470.907 228.05 470.21C228.543 469.957 229.036 469.705 229.545 469.445C230.067 469.174 230.588 468.903 231.126 468.624C237.997 465.123 244.946 461.879 252.109 459.021C254.034 458.247 255.916 457.401 257.796 456.521C261.145 454.963 264.542 453.537 267.955 452.126C269.056 451.671 270.156 451.214 271.257 450.756C272.771 450.127 274.285 449.498 275.799 448.869C292.548 442.064 292.548 442.064 308.897 434.379C310.763 433.427 312.657 432.538 314.554 431.647C319.308 429.411 323.973 427.039 328.602 424.555C329.147 424.263 329.692 423.97 330.254 423.669C333.382 421.978 336.455 420.222 339.484 418.36C340.037 418.023 340.037 418.023 340.6 417.68C345.176 414.881 349.543 412.062 353.564 408.495C353.956 408.164 354.349 407.834 354.752 407.493C362.335 400.958 367.946 392.179 373.049 383.653C382.555 367.783 394.282 353.423 412.716 348.12C415.565 347.428 418.118 347.416 420.826 348.542C425.681 353.287 427.776 358.777 427.997 365.466C428.083 374.278 426.117 382.333 423.813 390.768C422.18 396.926 421.934 403.094 422.088 409.434C410.827 414.316 399.373 418.663 387.752 422.602C386.195 423.134 384.645 423.681 383.095 424.231C378.095 426.005 373.061 427.676 368.026 429.349C361.914 431.38 355.816 433.453 349.725 435.546C345.203 437.099 340.678 438.64 336.14 440.145C331.291 441.756 326.46 443.411 321.65 445.136C321.138 445.32 320.626 445.503 320.099 445.692C311.148 448.912 302.295 452.34 293.489 455.941C293.041 456.123 292.592 456.305 292.13 456.493C287.299 458.462 282.605 460.604 277.968 462.993C276.774 463.605 275.572 464.199 274.369 464.794C272.76 465.593 271.156 466.403 269.553 467.215C269.18 467.403 268.806 467.591 268.422 467.785C260.303 471.896 252.562 476.495 245.147 481.778C247.287 483.553 249.555 485.124 251.836 486.71C256.813 490.179 256.813 490.179 258.777 491.587C282.506 508.594 307.611 523.913 337.105 527.721C337.537 527.777 337.969 527.834 338.415 527.893C339.223 527.994 340.033 528.086 340.844 528.166C342.573 528.377 343.488 528.492 344.636 529.855C345.821 532.932 346.325 536.51 345.21 539.69C341.737 545.71 334.862 548.792 328.836 551.596C325.905 552.967 323.023 554.341 320.241 556C319.929 555.71 319.616 555.42 319.294 555.121C316.654 552.693 313.967 550.37 311.176 548.115C309.941 547.095 308.752 546.04 307.569 544.96C305.576 543.145 303.519 541.431 301.424 539.734C300.223 538.752 299.039 537.754 297.859 536.745C294.737 534.076 291.544 531.514 288.299 528.995C287.321 528.232 286.348 527.464 285.375 526.695C280.677 522.993 275.893 519.454 270.961 516.07C270.665 515.867 270.37 515.664 270.065 515.454C265.955 512.639 261.746 510.003 257.482 507.425C256.262 506.688 255.048 505.941 253.845 505.176C250.283 502.921 246.625 501.009 242.84 499.167C241.178 498.355 239.526 497.522 237.873 496.692C236.994 496.253 236.116 495.813 235.236 495.376C234.615 495.063 233.999 494.742 233.385 494.415C229.826 492.543 226.91 492.466 223.012 493.56C212.851 496.749 202.991 501.931 193.67 507.023C192.498 507.66 191.32 508.284 190.141 508.908C177.973 515.39 166.593 522.876 156.006 531.711C155.299 532.294 154.585 532.868 153.867 533.438C150.664 535.996 147.732 538.735 144.85 541.643C144.12 542.379 143.385 543.11 142.649 543.841C140.541 545.95 138.548 548.023 136.82 550.467C135.527 552.188 135.527 552.188 133.759 552.651C125.349 551.602 116.038 548.887 110.407 542.144C107.055 537.493 105.679 532.891 105.73 527.174C105.736 526.426 105.736 526.426 105.741 525.663C105.745 525.288 105.75 524.912 105.754 524.526C106.315 524.46 106.877 524.394 107.455 524.327C127.355 521.967 146.089 517.909 164.421 509.493C164.829 509.309 165.236 509.124 165.656 508.934C171.719 506.177 177.499 503.078 183.195 499.628C183.523 499.432 183.852 499.236 184.19 499.034C192.049 494.333 199.288 488.726 206.192 482.717C204.264 477.988 197.696 475.028 193.512 472.483C192.103 471.619 190.713 470.725 189.326 469.828C188.933 469.575 188.933 469.575 188.532 469.316C187.01 468.334 185.492 467.346 183.976 466.354C183.627 466.127 183.278 465.899 182.918 465.664C182.247 465.226 181.576 464.787 180.906 464.346C178.956 463.074 176.972 461.911 174.93 460.794C173.283 459.876 171.67 458.903 170.052 457.934C166.515 455.816 162.997 453.724 159.277 451.94C157.841 451.238 156.436 450.492 155.028 449.736C144.781 444.247 134.283 439.297 123.53 434.886C122.16 434.323 120.795 433.751 119.429 433.177C98.602 424.493 77.0766 417.687 55.0658 412.723C53.9829 412.474 52.9 412.226 51.8171 411.978C46.5147 410.772 41.2191 409.629 35.8523 408.75C34.4149 408.495 34.4149 408.495 33.0069 408.025C29.5037 399.683 30.0497 389.222 30.0149 380.338C30.0112 379.915 30.0076 379.491 30.0039 379.054C29.9288 367.976 30.8843 354.515 38.8736 346.017C44.4433 340.88 51.6557 341.301 57.9991 344.96Z"/>
</mask>
<path d="M57.9991 344.96C66.5744 350.816 72.522 359.811 77.5981 368.691C78.0352 369.455 78.4799 370.215 78.925 370.974C81.0703 374.667 83.0861 378.425 85.1034 382.188C90.5016 392.655 90.5016 392.655 97.3062 402.212C98.2448 403.327 98.2448 403.327 98.2448 404.267C98.6242 404.312 99.0035 404.357 99.3943 404.403C101.447 404.814 103.265 405.529 105.197 406.322C105.606 406.489 106.015 406.655 106.436 406.827C107.776 407.377 109.112 407.934 110.448 408.495C110.89 408.68 111.333 408.866 111.789 409.057C123.802 414.128 135.438 420 146.713 426.547C148.029 427.305 149.351 428.049 150.677 428.79C157.074 432.366 163.35 436.115 169.584 439.969C169.997 440.223 170.409 440.477 170.834 440.739C174.598 443.06 178.354 445.392 182.099 447.744C192.585 454.329 203.143 460.784 213.873 466.966C215.049 467.649 216.215 468.346 217.38 469.048C218.051 469.445 218.722 469.842 219.393 470.239C219.684 470.419 219.976 470.6 220.276 470.786C222.234 471.927 223.266 471.961 225.435 471.443C226.748 470.907 226.748 470.907 228.05 470.21C228.543 469.957 229.036 469.705 229.545 469.445C230.067 469.174 230.588 468.903 231.126 468.624C237.997 465.123 244.946 461.879 252.109 459.021C254.034 458.247 255.916 457.401 257.796 456.521C261.145 454.963 264.542 453.537 267.955 452.126C269.056 451.671 270.156 451.214 271.257 450.756C272.771 450.127 274.285 449.498 275.799 448.869C292.548 442.064 292.548 442.064 308.897 434.379C310.763 433.427 312.657 432.538 314.554 431.647C319.308 429.411 323.973 427.039 328.602 424.555C329.147 424.263 329.692 423.97 330.254 423.669C333.382 421.978 336.455 420.222 339.484 418.36C340.037 418.023 340.037 418.023 340.6 417.68C345.176 414.881 349.543 412.062 353.564 408.495C353.956 408.164 354.349 407.834 354.752 407.493C362.335 400.958 367.946 392.179 373.049 383.653C382.555 367.783 394.282 353.423 412.716 348.12C415.565 347.428 418.118 347.416 420.826 348.542C425.681 353.287 427.776 358.777 427.997 365.466C428.083 374.278 426.117 382.333 423.813 390.768C422.18 396.926 421.934 403.094 422.088 409.434C410.827 414.316 399.373 418.663 387.752 422.602C386.195 423.134 384.645 423.681 383.095 424.231C378.095 426.005 373.061 427.676 368.026 429.349C361.914 431.38 355.816 433.453 349.725 435.546C345.203 437.099 340.678 438.64 336.14 440.145C331.291 441.756 326.46 443.411 321.65 445.136C321.138 445.32 320.626 445.503 320.099 445.692C311.148 448.912 302.295 452.34 293.489 455.941C293.041 456.123 292.592 456.305 292.13 456.493C287.299 458.462 282.605 460.604 277.968 462.993C276.774 463.605 275.572 464.199 274.369 464.794C272.76 465.593 271.156 466.403 269.553 467.215C269.18 467.403 268.806 467.591 268.422 467.785C260.303 471.896 252.562 476.495 245.147 481.778C247.287 483.553 249.555 485.124 251.836 486.71C256.813 490.179 256.813 490.179 258.777 491.587C282.506 508.594 307.611 523.913 337.105 527.721C337.537 527.777 337.969 527.834 338.415 527.893C339.223 527.994 340.033 528.086 340.844 528.166C342.573 528.377 343.488 528.492 344.636 529.855C345.821 532.932 346.325 536.51 345.21 539.69C341.737 545.71 334.862 548.792 328.836 551.596C325.905 552.967 323.023 554.341 320.241 556C319.929 555.71 319.616 555.42 319.294 555.121C316.654 552.693 313.967 550.37 311.176 548.115C309.941 547.095 308.752 546.04 307.569 544.96C305.576 543.145 303.519 541.431 301.424 539.734C300.223 538.752 299.039 537.754 297.859 536.745C294.737 534.076 291.544 531.514 288.299 528.995C287.321 528.232 286.348 527.464 285.375 526.695C280.677 522.993 275.893 519.454 270.961 516.07C270.665 515.867 270.37 515.664 270.065 515.454C265.955 512.639 261.746 510.003 257.482 507.425C256.262 506.688 255.048 505.941 253.845 505.176C250.283 502.921 246.625 501.009 242.84 499.167C241.178 498.355 239.526 497.522 237.873 496.692C236.994 496.253 236.116 495.813 235.236 495.376C234.615 495.063 233.999 494.742 233.385 494.415C229.826 492.543 226.91 492.466 223.012 493.56C212.851 496.749 202.991 501.931 193.67 507.023C192.498 507.66 191.32 508.284 190.141 508.908C177.973 515.39 166.593 522.876 156.006 531.711C155.299 532.294 154.585 532.868 153.867 533.438C150.664 535.996 147.732 538.735 144.85 541.643C144.12 542.379 143.385 543.11 142.649 543.841C140.541 545.95 138.548 548.023 136.82 550.467C135.527 552.188 135.527 552.188 133.759 552.651C125.349 551.602 116.038 548.887 110.407 542.144C107.055 537.493 105.679 532.891 105.73 527.174C105.736 526.426 105.736 526.426 105.741 525.663C105.745 525.288 105.75 524.912 105.754 524.526C106.315 524.46 106.877 524.394 107.455 524.327C127.355 521.967 146.089 517.909 164.421 509.493C164.829 509.309 165.236 509.124 165.656 508.934C171.719 506.177 177.499 503.078 183.195 499.628C183.523 499.432 183.852 499.236 184.19 499.034C192.049 494.333 199.288 488.726 206.192 482.717C204.264 477.988 197.696 475.028 193.512 472.483C192.103 471.619 190.713 470.725 189.326 469.828C188.933 469.575 188.933 469.575 188.532 469.316C187.01 468.334 185.492 467.346 183.976 466.354C183.627 466.127 183.278 465.899 182.918 465.664C182.247 465.226 181.576 464.787 180.906 464.346C178.956 463.074 176.972 461.911 174.93 460.794C173.283 459.876 171.67 458.903 170.052 457.934C166.515 455.816 162.997 453.724 159.277 451.94C157.841 451.238 156.436 450.492 155.028 449.736C144.781 444.247 134.283 439.297 123.53 434.886C122.16 434.323 120.795 433.751 119.429 433.177C98.602 424.493 77.0766 417.687 55.0658 412.723C53.9829 412.474 52.9 412.226 51.8171 411.978C46.5147 410.772 41.2191 409.629 35.8523 408.75C34.4149 408.495 34.4149 408.495 33.0069 408.025C29.5037 399.683 30.0497 389.222 30.0149 380.338C30.0112 379.915 30.0076 379.491 30.0039 379.054C29.9288 367.976 30.8843 354.515 38.8736 346.017C44.4433 340.88 51.6557 341.301 57.9991 344.96Z" fill="#FDFDFD"/>
<path d="M57.9991 344.96C66.5744 350.816 72.522 359.811 77.5981 368.691C78.0352 369.455 78.4799 370.215 78.925 370.974C81.0703 374.667 83.0861 378.425 85.1034 382.188C90.5016 392.655 90.5016 392.655 97.3062 402.212C98.2448 403.327 98.2448 403.327 98.2448 404.267C98.6242 404.312 99.0035 404.357 99.3943 404.403C101.447 404.814 103.265 405.529 105.197 406.322C105.606 406.489 106.015 406.655 106.436 406.827C107.776 407.377 109.112 407.934 110.448 408.495C110.89 408.68 111.333 408.866 111.789 409.057C123.802 414.128 135.438 420 146.713 426.547C148.029 427.305 149.351 428.049 150.677 428.79C157.074 432.366 163.35 436.115 169.584 439.969C169.997 440.223 170.409 440.477 170.834 440.739C174.598 443.06 178.354 445.392 182.099 447.744C192.585 454.329 203.143 460.784 213.873 466.966C215.049 467.649 216.215 468.346 217.38 469.048C218.051 469.445 218.722 469.842 219.393 470.239C219.684 470.419 219.976 470.6 220.276 470.786C222.234 471.927 223.266 471.961 225.435 471.443C226.748 470.907 226.748 470.907 228.05 470.21C228.543 469.957 229.036 469.705 229.545 469.445C230.067 469.174 230.588 468.903 231.126 468.624C237.997 465.123 244.946 461.879 252.109 459.021C254.034 458.247 255.916 457.401 257.796 456.521C261.145 454.963 264.542 453.537 267.955 452.126C269.056 451.671 270.156 451.214 271.257 450.756C272.771 450.127 274.285 449.498 275.799 448.869C292.548 442.064 292.548 442.064 308.897 434.379C310.763 433.427 312.657 432.538 314.554 431.647C319.308 429.411 323.973 427.039 328.602 424.555C329.147 424.263 329.692 423.97 330.254 423.669C333.382 421.978 336.455 420.222 339.484 418.36C340.037 418.023 340.037 418.023 340.6 417.68C345.176 414.881 349.543 412.062 353.564 408.495C353.956 408.164 354.349 407.834 354.752 407.493C362.335 400.958 367.946 392.179 373.049 383.653C382.555 367.783 394.282 353.423 412.716 348.12C415.565 347.428 418.118 347.416 420.826 348.542C425.681 353.287 427.776 358.777 427.997 365.466C428.083 374.278 426.117 382.333 423.813 390.768C422.18 396.926 421.934 403.094 422.088 409.434C410.827 414.316 399.373 418.663 387.752 422.602C386.195 423.134 384.645 423.681 383.095 424.231C378.095 426.005 373.061 427.676 368.026 429.349C361.914 431.38 355.816 433.453 349.725 435.546C345.203 437.099 340.678 438.64 336.14 440.145C331.291 441.756 326.46 443.411 321.65 445.136C321.138 445.32 320.626 445.503 320.099 445.692C311.148 448.912 302.295 452.34 293.489 455.941C293.041 456.123 292.592 456.305 292.13 456.493C287.299 458.462 282.605 460.604 277.968 462.993C276.774 463.605 275.572 464.199 274.369 464.794C272.76 465.593 271.156 466.403 269.553 467.215C269.18 467.403 268.806 467.591 268.422 467.785C260.303 471.896 252.562 476.495 245.147 481.778C247.287 483.553 249.555 485.124 251.836 486.71C256.813 490.179 256.813 490.179 258.777 491.587C282.506 508.594 307.611 523.913 337.105 527.721C337.537 527.777 337.969 527.834 338.415 527.893C339.223 527.994 340.033 528.086 340.844 528.166C342.573 528.377 343.488 528.492 344.636 529.855C345.821 532.932 346.325 536.51 345.21 539.69C341.737 545.71 334.862 548.792 328.836 551.596C325.905 552.967 323.023 554.341 320.241 556C319.929 555.71 319.616 555.42 319.294 555.121C316.654 552.693 313.967 550.37 311.176 548.115C309.941 547.095 308.752 546.04 307.569 544.96C305.576 543.145 303.519 541.431 301.424 539.734C300.223 538.752 299.039 537.754 297.859 536.745C294.737 534.076 291.544 531.514 288.299 528.995C287.321 528.232 286.348 527.464 285.375 526.695C280.677 522.993 275.893 519.454 270.961 516.07C270.665 515.867 270.37 515.664 270.065 515.454C265.955 512.639 261.746 510.003 257.482 507.425C256.262 506.688 255.048 505.941 253.845 505.176C250.283 502.921 246.625 501.009 242.84 499.167C241.178 498.355 239.526 497.522 237.873 496.692C236.994 496.253 236.116 495.813 235.236 495.376C234.615 495.063 233.999 494.742 233.385 494.415C229.826 492.543 226.91 492.466 223.012 493.56C212.851 496.749 202.991 501.931 193.67 507.023C192.498 507.66 191.32 508.284 190.141 508.908C177.973 515.39 166.593 522.876 156.006 531.711C155.299 532.294 154.585 532.868 153.867 533.438C150.664 535.996 147.732 538.735 144.85 541.643C144.12 542.379 143.385 543.11 142.649 543.841C140.541 545.95 138.548 548.023 136.82 550.467C135.527 552.188 135.527 552.188 133.759 552.651C125.349 551.602 116.038 548.887 110.407 542.144C107.055 537.493 105.679 532.891 105.73 527.174C105.736 526.426 105.736 526.426 105.741 525.663C105.745 525.288 105.75 524.912 105.754 524.526C106.315 524.46 106.877 524.394 107.455 524.327C127.355 521.967 146.089 517.909 164.421 509.493C164.829 509.309 165.236 509.124 165.656 508.934C171.719 506.177 177.499 503.078 183.195 499.628C183.523 499.432 183.852 499.236 184.19 499.034C192.049 494.333 199.288 488.726 206.192 482.717C204.264 477.988 197.696 475.028 193.512 472.483C192.103 471.619 190.713 470.725 189.326 469.828C188.933 469.575 188.933 469.575 188.532 469.316C187.01 468.334 185.492 467.346 183.976 466.354C183.627 466.127 183.278 465.899 182.918 465.664C182.247 465.226 181.576 464.787 180.906 464.346C178.956 463.074 176.972 461.911 174.93 460.794C173.283 459.876 171.67 458.903 170.052 457.934C166.515 455.816 162.997 453.724 159.277 451.94C157.841 451.238 156.436 450.492 155.028 449.736C144.781 444.247 134.283 439.297 123.53 434.886C122.16 434.323 120.795 433.751 119.429 433.177C98.602 424.493 77.0766 417.687 55.0658 412.723C53.9829 412.474 52.9 412.226 51.8171 411.978C46.5147 410.772 41.2191 409.629 35.8523 408.75C34.4149 408.495 34.4149 408.495 33.0069 408.025C29.5037 399.683 30.0497 389.222 30.0149 380.338C30.0112 379.915 30.0076 379.491 30.0039 379.054C29.9288 367.976 30.8843 354.515 38.8736 346.017C44.4433 340.88 51.6557 341.301 57.9991 344.96Z" stroke="black" stroke-width="60" mask="url(#path-2-outside-2_21918_1667)"/>
<path d="M297.244 235.476C297.718 235.477 297.718 235.477 298.201 235.478C315.705 235.547 334.892 240.401 347.58 253.123C354.81 261.003 358.304 271.488 357.911 282.142C357.167 293.455 353.019 303.929 344.462 311.558C334.28 320.144 319.536 321.53 306.785 320.449C290.241 318.745 273.717 311.595 262.513 299.04C254.97 289.645 252.548 277.33 253.706 265.502C254.84 256.998 258.84 250.058 265.593 244.753C269.973 241.595 274.568 239.48 279.673 237.825C280.022 237.711 280.37 237.597 280.729 237.479C286.154 235.815 291.597 235.452 297.244 235.476Z" fill="black"/>
<path d="M190.387 246.304C191.79 247.553 193.124 248.865 194.459 250.185C194.795 250.487 195.131 250.79 195.476 251.101C199.561 254.862 202.476 259.827 204.843 264.807C204.982 265.095 205.12 265.384 205.263 265.682C206.012 267.339 206.36 268.577 206.192 270.385C205.671 271.496 205.671 271.496 204.937 272.644C204.667 273.069 204.397 273.494 204.119 273.932C203.825 274.38 203.532 274.827 203.23 275.288C202.781 275.981 202.781 275.981 202.323 276.688C198.472 282.568 194.139 287.852 189.296 292.933C188.921 293.334 188.546 293.734 188.16 294.146C172.69 310.212 150.618 318.17 128.801 320.082C128.001 320.161 127.204 320.277 126.411 320.404C123.688 320.716 122.091 319.667 119.981 318.036C115.33 314.239 115.33 314.239 113.733 312.194C113.733 311.884 113.733 311.574 113.733 311.254C113.423 311.254 113.113 311.254 112.794 311.254C105.096 302.735 97.1018 288.424 97.4203 276.604C98.2433 265.639 105.696 255.56 113.702 248.528C134.814 231.488 168.717 227.84 190.387 246.304Z" fill="black"/>
<path d="M221.211 302.799C223.298 304.733 224.868 306.877 226.462 309.229C226.728 309.621 226.995 310.013 227.269 310.417C236.833 324.709 243.833 341.175 240.687 358.63C239.99 361.989 238.673 365.022 237.169 368.096C232.738 367.779 229.815 366.304 226.759 363.048C221.246 356.215 221.605 346.696 221.645 338.379C221.651 337.107 221.654 335.834 221.657 334.562C221.662 331.862 221.671 329.163 221.681 326.463C221.692 323.328 221.701 320.194 221.707 317.059C221.71 315.812 221.716 314.565 221.722 313.318C221.723 312.546 221.725 311.775 221.726 311.004C221.73 310.492 221.73 310.492 221.734 309.97C221.734 307.553 221.52 305.195 221.211 302.799Z" fill="#020202"/>
<path d="M216.049 307.496C216.878 308.742 217.162 309.334 217.473 310.728C217.553 311.083 217.632 311.439 217.714 311.806C217.794 312.176 217.873 312.546 217.955 312.928C218.037 313.285 218.118 313.643 218.202 314.011C219.113 318.167 219.407 322.326 219.462 326.573C219.468 326.987 219.474 327.401 219.48 327.828C219.756 352.088 219.756 352.088 212.294 360.579C210.438 362.431 208.323 364.21 205.628 364.416C203.665 364.328 202.658 364.04 201.088 362.81C197.923 358.163 198.029 350.859 198.836 345.466C200.055 339.04 202.739 333.377 206.104 327.813C210.009 321.228 213.336 314.655 216.049 307.496Z" fill="#020202"/>
</svg>
